<svg id="그룹_141" data-name="그룹 141" xmlns="http://www.w3.org/2000/svg" xmlns:xlink="http://www.w3.org/1999/xlink" width="130.303" height="29.142" viewBox="0 0 130.303 29.142">
  <defs>
    <clipPath id="clip-path">
      <rect id="사각형_67" data-name="사각형 67" width="130.303" height="29.142" fill="#e2e6d0"/>
    </clipPath>
  </defs>
  <g id="그룹_140" data-name="그룹 140" clip-path="url(#clip-path)">
    <path id="패스_20" data-name="패스 20" d="M172.112,43.145l-.1-.121-10.1-12.462V43.145h-1.579l-.707-1.352c-2.329-3.835-4.849-5.78-7.49-5.78a5.622,5.622,0,0,0-1.664.259l-3.664,6.873H145.26V18.161h1.648v21.3l6.067-11.378,1.347.005,5.946,11.366V28.094h1.684L171.968,40.46V28.071h1.648V43.145ZM152.136,34.44a7.661,7.661,0,0,1,4.429,1.494l-2.926-5.592-2.2,4.134a7.009,7.009,0,0,1,.7-.035" transform="translate(-112.007 -14.004)" fill="#e2e6d0"/>
    <path id="패스_21" data-name="패스 21" d="M206.929,29.142v-18.6H182.719V8.9h24.211V0h1.648V8.9h10.065v1.649H208.578v18.6Z" transform="translate(-140.891)" fill="#e2e6d0"/>
    <path id="패스_22" data-name="패스 22" d="M26.4,41.506l-.767-1.464c-2.324-3.825-4.844-5.77-7.483-5.77a5.628,5.628,0,0,0-1.664.258L12.767,41.5H0V16.525l.684-.117a24.005,24.005,0,0,1,4.125-.373,16.074,16.074,0,0,1,8.957,2.448A18.763,18.763,0,0,1,19.828,25.4h0l.062.119c.159.29.322.6.5.945l5.915,11.3,0-20.457-.006-.77,1.65-.015.023,24.627.005.36Zm-14.62-1.656,6.945-13.025c-3.185-6.153-7.748-9.145-13.946-9.145a21.614,21.614,0,0,0-3.129.239v21.93ZM18.144,32.7a7.654,7.654,0,0,1,4.428,1.5L19.647,28.6l-2.2,4.133a7.015,7.015,0,0,1,.7-.035" transform="translate(0 -12.364)" fill="#e2e6d0"/>
    <path id="패스_23" data-name="패스 23" d="M335.15,84.478a17.248,17.248,0,0,1-3.239.264H331.1V81.47h3.321v.7h-2.489v1.9a17.872,17.872,0,0,0,3.115-.239ZM332.909,88h3.972v.717H332.6a.532.532,0,0,1-.4-.14.557.557,0,0,1-.136-.4v-1.5h3.791v-.635h-3.84v-.7H336.7v2.036h-3.791Zm4.912-5.266v.7H336.7v1.516h-.832v-3.8h.832v1.582Z" transform="translate(-255.308 -62.572)" fill="#e2e6d0"/>
    <path id="패스_24" data-name="패스 24" d="M368.268,85.384a17.9,17.9,0,0,1-3.255.255h-.8V83.233h2.448v-.948h-2.472V81.6h3.28v2.3h-2.448v1.063h.049a17.738,17.738,0,0,0,3.1-.239ZM366.01,87.84h3.931v.684h-4.228a.533.533,0,0,1-.4-.14.557.557,0,0,1-.136-.4V86.274h.832Zm4.879-4.533v.7h-1.121v2.67h-.832v-5.53h.832v2.159Z" transform="translate(-280.819 -62.572)" fill="#e2e6d0"/>
    <path id="패스_25" data-name="패스 25" d="M396.012,88.312h6.758v.7h-6.758Zm.948-5.291h4.9v.7H397.8v1.005h3.931V85.4h-3.923v1.022h4.186v.7H396.96Z" transform="translate(-305.357 -64.016)" fill="#e2e6d0"/>
    <path id="패스_26" data-name="패스 26" d="M448.779,85.49h-6.758v-.717h6.758ZM442.886,82.8a1.222,1.222,0,0,1,.63-1.076,4.636,4.636,0,0,1,3.766,0,1.229,1.229,0,0,1,0,2.147,4.677,4.677,0,0,1-3.766,0,1.211,1.211,0,0,1-.63-1.071m.107,5.431V86.149h4.8v2.629h-4.269a.533.533,0,0,1-.4-.14.557.557,0,0,1-.136-.4m4.038-5.381v-.107a.636.636,0,0,0-.408-.56,2.722,2.722,0,0,0-1.224-.214,2.691,2.691,0,0,0-1.219.214.636.636,0,0,0-.4.56v.107a.636.636,0,0,0,.4.56,2.691,2.691,0,0,0,1.219.214,2.722,2.722,0,0,0,1.224-.214.636.636,0,0,0,.408-.56m-.049,3.972h-3.165V88.1h3.165Z" transform="translate(-340.834 -62.71)" fill="#e2e6d0"/>
    <path id="패스_27" data-name="패스 27" d="M477.053,85.146a2.148,2.148,0,0,1-.989-.222,1.616,1.616,0,0,1-.68-.643,2.115,2.115,0,0,1,0-1.97,1.62,1.62,0,0,1,.676-.643,2.327,2.327,0,0,1,1.986,0,1.623,1.623,0,0,1,.676.643,2.117,2.117,0,0,1,0,1.97,1.623,1.623,0,0,1-.676.643,2.141,2.141,0,0,1-.993.222m0-.676a1.054,1.054,0,0,0,.754-.268.954.954,0,0,0,.284-.729v-.354a.954.954,0,0,0-.284-.729,1.2,1.2,0,0,0-1.508,0,.954.954,0,0,0-.284.729v.354a.954.954,0,0,0,.284.729,1.055,1.055,0,0,0,.754.268m-.8,1.417h4.714v2.851h-.816V86.588h-3.9Zm5.835-2.25h-1.121v1.838h-.832V81.149h.832v1.788h1.121Z" transform="translate(-366.372 -62.572)" fill="#e2e6d0"/>
    <path id="패스_28" data-name="패스 28" d="M509.911,85.681a2.415,2.415,0,0,1-.927-.165,1.41,1.41,0,0,1-.61-.445,1.029,1.029,0,0,1-.21-.634,1.006,1.006,0,0,1,.668-.989V83.4h-1.146v-.684h4.434V83.4h-1.129v.049a1.006,1.006,0,0,1,.667.989,1.029,1.029,0,0,1-.21.634,1.41,1.41,0,0,1-.61.445,2.415,2.415,0,0,1-.927.165m1.145-3.651h-2.2v-.7h2.2Zm-2.151,4.186h4.714v2.522H512.8V86.917h-3.9Zm.931-1.236h.157a.988.988,0,0,0,.643-.2.674.674,0,0,0,.247-.553.665.665,0,0,0-.247-.545.987.987,0,0,0-.643-.2h-.157a1,1,0,0,0-.643.2.662.662,0,0,0-.247.549.674.674,0,0,0,.247.553.989.989,0,0,0,.643.2m4.9-1.121h-1.121V85.8h-.832V81.148h.832v2.011h1.121Z" transform="translate(-391.467 -62.572)" fill="#e2e6d0"/>
    <path id="패스_29" data-name="패스 29" d="M543.05,85.145q-.816.033-1.854.033l-.066-.668q1.393,0,2.691-.066t2.172-.19l.074.626q-.9.14-2.209.222v1.252h-.807ZM541.6,82.64a1.153,1.153,0,0,1,.523-.993,2.737,2.737,0,0,1,2.736,0,1.153,1.153,0,0,1,.523.993,1.17,1.17,0,0,1-.523,1.005,2.709,2.709,0,0,1-2.736,0,1.17,1.17,0,0,1-.523-1.005m.832.058a.584.584,0,0,0,.289.511,1.39,1.39,0,0,0,.775.19,1.354,1.354,0,0,0,.762-.19.585.585,0,0,0,.284-.511v-.1a.586.586,0,0,0-.284-.511,1.356,1.356,0,0,0-.762-.19,1.392,1.392,0,0,0-.775.19.584.584,0,0,0-.289.511Zm5.126,5.151v.676h-4.384a.532.532,0,0,1-.4-.14.557.557,0,0,1-.136-.4V86.612h.832v1.236Zm-.981-2.365V81.148h.832v5.827h-.832v-.882H544.9v-.61Z" transform="translate(-417.255 -62.572)" fill="#e2e6d0"/>
  </g>
</svg>
